<?xml version="1.0" encoding="utf-8"?>
<!-- Generator: Adobe Illustrator 21.1.0, SVG Export Plug-In . SVG Version: 6.00 Build 0)  -->
<svg version="1.1" id="Layer_1" xmlns="http://www.w3.org/2000/svg" xmlns:xlink="http://www.w3.org/1999/xlink" x="0px" y="0px"
	 viewBox="0 0 36 36" style="enable-background:new 0 0 36 36;" xml:space="preserve">
<style type="text/css">
	.st0{fill:#FF1B20;}
	.st1{fill:#FEFEFE;}
</style>
<g>
	<path class="st0" d="M18,0.9c9.5,0,17.1,7.6,17.1,17.1c0,9.5-7.7,17.2-17.1,17.1C8.5,35.1,0.9,27.5,0.9,18C0.9,8.5,8.5,0.9,18,0.9z
		"/>
	<path class="st1" d="M25.8,23.8c-0.4,0-0.8-0.2-1.1-0.5c-1.2-1.2-2.5-2.5-3.7-3.7c-1-1-1.9-1.9-2.9-2.9c-0.2-0.2-0.2-0.1-0.4,0
		c-2.2,2.2-4.3,4.3-6.5,6.5c-0.3,0.3-0.5,0.5-0.9,0.5c-0.5,0.1-0.9-0.1-1.2-0.4c-0.8-0.8-1.5-1.5-2.3-2.3c-0.6-0.6-0.6-1.4,0.1-2.1
		c1.6-1.6,3.2-3.2,4.9-4.9c1.7-1.7,3.4-3.4,5.1-5.1c0.7-0.7,1.5-0.7,2.2,0c3.3,3.3,6.6,6.6,9.9,9.9c0.7,0.7,0.7,1.5,0,2.2
		c-0.7,0.7-1.4,1.4-2.1,2.1C26.6,23.6,26.3,23.8,25.8,23.8z"/>
</g>
</svg>
